<svg version="1.1" id="Layer_1" xmlns="http://www.w3.org/2000/svg" xmlns:xlink="http://www.w3.org/1999/xlink" x="0px" y="0px"
	 width="100%" viewBox="0 0 169 134" enable-background="new 0 0 169 134" xml:space="preserve">
<path fill="#050402" opacity="1.000000" stroke="none" 
	d="
M1.000000,53.000000 
	C1.000000,35.716045 1.000000,18.432089 1.000000,1.000000 
	C34.687428,1.000000 68.375053,1.000000 102.458099,1.386329 
	C101.284256,2.259308 99.738075,2.845201 98.141991,3.216530 
	C87.657875,5.655655 77.102699,7.819123 66.697197,10.553782 
	C61.542519,11.908476 56.247620,13.853708 55.569500,20.610512 
	C62.287567,21.870569 62.476429,22.189657 62.381996,29.471069 
	C62.306431,35.297489 62.357742,41.125633 62.362793,46.953007 
	C62.369690,54.909229 62.372192,54.903683 55.324974,56.922043 
	C55.052288,57.000141 54.867661,57.385708 53.816944,58.513885 
	C55.545555,60.453533 57.454063,62.455547 59.193642,64.594925 
	C60.397945,66.076004 62.404575,67.829979 62.284512,69.319496 
	C61.085300,84.196724 64.976601,99.368050 60.015312,113.387474 
	C64.380699,114.324989 68.795593,115.325424 73.232819,116.214371 
	C80.742363,117.718819 85.981758,113.424858 84.714218,106.868477 
	C79.446373,108.285667 76.901382,107.226608 75.651749,102.702339 
	C74.908173,100.010201 74.356598,97.185837 74.276047,94.404770 
	C74.044716,86.417412 74.095299,78.421852 74.038582,70.429489 
	C73.969841,60.744476 78.948120,55.789711 88.674500,55.850330 
	C90.566353,55.862122 92.458336,55.852024 96.090942,55.852024 
	C93.234856,52.110283 91.475945,49.424469 89.337830,47.085255 
	C85.056824,42.401573 80.569710,47.528458 75.631195,47.384151 
	C75.631195,39.918552 75.207573,32.741417 75.845955,25.660017 
	C76.091011,22.941675 78.177925,19.534752 80.467369,18.070583 
	C83.361511,16.219688 87.277061,15.763727 90.830467,15.203519 
	C94.288231,14.658388 96.194077,16.186548 95.682365,20.103540 
	C95.520828,21.340130 95.943939,23.519709 96.689972,23.825075 
	C98.173019,24.432108 100.397255,24.656033 101.728477,23.942909 
	C105.998215,21.655653 107.543190,17.925884 106.533737,13.019688 
	C105.722679,9.077779 103.380440,5.121556 106.000000,1.000000 
	C127.274841,1.000000 148.549683,1.000000 170.000000,1.000000 
	C170.000000,32.687344 170.000000,64.375015 169.692749,96.532364 
	C168.975861,97.004303 168.566193,97.006554 168.089340,96.608353 
	C168.762985,87.014160 157.686752,80.897446 149.473663,86.620346 
	C147.586258,87.935486 145.923996,89.573708 143.697815,90.993584 
	C142.930557,90.877998 142.623611,90.832085 142.318451,90.412361 
	C142.921234,84.886414 138.826385,86.369911 136.636444,86.582291 
	C132.920792,86.942627 129.323059,88.378372 125.629837,89.139046 
	C117.397522,90.834610 115.985481,93.367340 118.674614,101.810997 
	C121.899879,100.835197 125.133141,99.856979 129.934753,98.404259 
	C127.360161,106.998825 125.133339,114.432472 122.620667,122.039009 
	C121.686272,123.847664 121.037712,125.483429 120.287880,127.445602 
	C119.834404,128.610596 119.482208,129.449188 118.828926,130.400299 
	C117.018555,132.008545 115.509277,133.504272 114.000000,135.000000 
	C113.555557,135.000000 113.111107,135.000000 111.992050,134.871674 
	C108.088806,131.895416 107.083832,128.341629 107.190796,124.060265 
	C107.394356,115.912788 107.086182,107.753838 107.155144,99.601051 
	C107.184296,96.153816 105.754562,94.865128 102.605415,96.123360 
	C98.586655,97.729042 94.691475,99.644020 90.743027,101.425682 
	C90.491302,101.888977 90.239571,102.352272 89.987846,102.815567 
	C98.716957,103.870605 97.198639,109.873947 97.313972,115.071739 
	C97.376709,117.899757 97.151901,120.752922 97.451027,123.552620 
	C97.917664,127.920029 97.086311,131.766357 94.000000,135.000000 
	C70.979103,135.000000 47.958210,135.000000 24.615017,134.661865 
	C29.655533,131.580215 35.490849,129.480881 40.286037,125.963531 
	C51.396393,117.813942 56.327988,105.703300 57.343433,92.580002 
	C58.282650,80.441864 50.101246,72.196945 37.902138,70.131241 
	C33.551796,69.394592 29.306553,68.037262 25.252815,66.760078 
	C25.811413,66.285858 26.130529,66.014801 26.864880,65.733444 
	C37.470455,67.835510 49.376637,56.728668 50.813473,45.403362 
	C51.255386,41.920124 51.493118,38.697956 54.483616,36.096878 
	C55.663120,35.070965 55.600586,32.617062 55.902218,31.535526 
	C52.733368,30.233488 50.274948,29.241503 47.831078,28.214893 
	C44.287788,26.726448 40.824360,24.130199 37.205692,23.898436 
	C21.890221,22.917528 8.012033,34.108349 3.202185,50.413975 
	C2.909503,51.406181 1.754025,52.143879 1.000000,53.000000 
M164.849869,23.852177 
	C162.417267,21.967041 160.250412,19.134951 157.504990,18.364511 
	C146.931885,15.397415 136.312271,23.439648 136.030090,34.468590 
	C135.757751,45.113598 135.803925,55.775040 136.081421,66.419586 
	C136.145065,68.860504 137.195602,71.683105 138.712723,73.602112 
	C143.215485,79.297646 149.581207,79.171486 155.503632,76.911125 
	C161.796585,74.509354 166.653809,70.055428 166.846497,62.563122 
	C167.039032,55.078159 167.100281,47.578018 166.844421,40.097347 
	C166.665726,34.873348 165.855972,29.670931 164.849869,23.852177 
M116.615906,67.548355 
	C117.180763,68.993507 118.362320,70.562920 118.104546,71.842331 
	C117.917023,72.773079 115.278587,74.213509 114.699211,73.856865 
	C113.418289,73.068382 111.985809,71.309761 111.949394,69.912117 
	C111.702530,60.437160 111.774551,50.952988 111.829170,41.472290 
	C111.835579,40.359016 112.011185,38.805237 112.728188,38.234947 
	C113.987816,37.233044 115.726883,36.833904 117.265160,36.182320 
	C117.491348,37.735970 118.324112,39.525131 117.829544,40.798943 
	C116.369225,44.560127 117.167412,46.268909 121.167992,46.589195 
	C125.350616,46.924057 129.262390,43.874870 130.491196,39.321842 
	C131.909149,34.068012 129.690506,28.200912 124.946274,26.179337 
	C114.768349,21.842394 100.337288,27.806190 100.169975,40.200851 
	C100.024055,51.010777 100.032722,61.826065 100.199074,72.635506 
	C100.278946,77.825562 102.580704,81.974365 107.543655,84.145203 
	C116.890198,88.233437 129.778992,80.539871 130.804947,70.328011 
	C131.320282,65.198761 129.126968,61.352474 125.197990,60.495445 
	C121.302803,59.645790 118.195206,61.932728 116.615906,67.548355 
z"/>
<path fill="#92774D" opacity="1.000000" stroke="none" 
	d="
M1.000000,53.444164 
	C1.754025,52.143879 2.909503,51.406181 3.202185,50.413975 
	C8.012033,34.108349 21.890221,22.917528 37.205692,23.898436 
	C40.824360,24.130199 44.287788,26.726448 47.831078,28.214893 
	C50.274948,29.241503 52.733368,30.233488 55.902218,31.535526 
	C55.600586,32.617062 55.663120,35.070965 54.483616,36.096878 
	C51.493118,38.697956 51.255386,41.920124 50.813473,45.403362 
	C49.376637,56.728668 37.470455,67.835510 26.654114,65.461945 
	C21.944471,61.800392 19.137112,57.948376 21.551161,52.302372 
	C23.197641,48.451572 25.189777,44.966305 30.396578,44.404129 
	C30.497007,46.504715 30.048271,48.572388 30.819715,49.963310 
	C31.559069,51.296371 33.694847,52.864594 34.989063,52.685242 
	C38.454559,52.204990 41.887283,44.907043 40.849812,41.219669 
	C39.719772,37.203300 35.529587,35.306740 30.832361,36.219902 
	C23.570559,37.631634 19.209539,42.399837 16.182777,48.589119 
	C12.160371,56.814339 16.027117,64.627312 25.013336,66.963242 
	C29.306553,68.037262 33.551796,69.394592 37.902138,70.131241 
	C50.101246,72.196945 58.282650,80.441864 57.343433,92.580002 
	C56.327988,105.703300 51.396393,117.813942 40.286037,125.963531 
	C35.490849,129.480881 29.655533,131.580215 24.146358,134.661865 
	C21.629442,135.000000 19.258884,135.000000 16.585499,134.647903 
	C10.582129,131.288239 5.376827,127.735268 2.310679,121.771667 
	C2.250283,121.654205 1.453319,121.915443 1.000000,122.000000 
	C1.000000,114.645744 1.000000,107.291496 1.173610,99.876381 
	C2.544873,98.502022 4.089713,97.367920 4.877778,95.842781 
	C7.710896,90.359833 12.669057,87.863655 18.073883,85.920013 
	C24.169096,83.728111 30.985447,86.572060 32.544712,91.894234 
	C34.719917,99.318779 30.800154,106.651276 23.636709,108.182243 
	C23.488194,107.584061 23.182154,106.970833 23.214520,106.376022 
	C23.365648,103.598717 22.712381,100.690178 19.579494,101.128288 
	C17.505676,101.418297 14.551508,103.692978 14.116221,105.571503 
	C13.375344,108.768822 13.159486,113.150421 14.836674,115.568237 
	C16.798431,118.396294 20.841827,120.321381 24.352577,121.276131 
	C25.822630,121.675919 28.245228,118.573097 30.234753,117.062721 
	C39.460945,113.330963 43.660709,107.200287 43.298771,95.917824 
	C43.041317,87.892448 40.225491,85.320763 29.117647,82.978065 
	C28.630035,82.875229 28.125391,82.854004 27.636852,82.754593 
	C15.883392,80.363022 5.867157,75.888306 3.073536,62.546925 
	C2.941065,61.914295 1.716158,61.510410 1.000001,61.000000 
	C1.000000,58.629444 1.000000,56.258884 1.000000,53.444164 
z"/>
<path fill="#8F754C" opacity="1.000000" stroke="none" 
	d="
M105.625000,1.000000 
	C103.380440,5.121556 105.722679,9.077779 106.533737,13.019688 
	C107.543190,17.925884 105.998215,21.655653 101.728477,23.942909 
	C100.397255,24.656033 98.173019,24.432108 96.689972,23.825075 
	C95.943939,23.519709 95.520828,21.340130 95.682365,20.103540 
	C96.194077,16.186548 94.288231,14.658388 90.830467,15.203519 
	C87.277061,15.763727 83.361511,16.219688 80.467369,18.070583 
	C78.177925,19.534752 76.091011,22.941675 75.845955,25.660017 
	C75.207573,32.741417 75.631195,39.918552 75.631195,47.384151 
	C80.569710,47.528458 85.056824,42.401573 89.337830,47.085255 
	C91.475945,49.424469 93.234856,52.110283 96.090942,55.852024 
	C92.458336,55.852024 90.566353,55.862122 88.674500,55.850330 
	C78.948120,55.789711 73.969841,60.744476 74.038582,70.429489 
	C74.095299,78.421852 74.044716,86.417412 74.276047,94.404770 
	C74.356598,97.185837 74.908173,100.010201 75.651749,102.702339 
	C76.901382,107.226608 79.446373,108.285667 84.714218,106.868477 
	C85.981758,113.424858 80.742363,117.718819 73.232819,116.214371 
	C68.795593,115.325424 64.380699,114.324989 60.015312,113.387474 
	C64.976601,99.368050 61.085300,84.196724 62.284512,69.319496 
	C62.404575,67.829979 60.397945,66.076004 59.193642,64.594925 
	C57.454063,62.455547 55.545555,60.453533 53.816944,58.513885 
	C54.867661,57.385708 55.052288,57.000141 55.324974,56.922043 
	C62.372192,54.903683 62.369690,54.909229 62.362793,46.953007 
	C62.357742,41.125633 62.306431,35.297489 62.381996,29.471069 
	C62.476429,22.189657 62.287567,21.870569 55.569500,20.610512 
	C56.247620,13.853708 61.542519,11.908476 66.697197,10.553782 
	C77.102699,7.819123 87.657875,5.655655 98.141991,3.216530 
	C99.738075,2.845201 101.284256,2.259308 102.926758,1.386329 
	C103.750000,1.000000 104.500000,1.000000 105.625000,1.000000 
z"/>
<path fill="#8F754C" opacity="1.000000" stroke="none" 
	d="
M144.158127,91.063248 
	C145.923996,89.573708 147.586258,87.935486 149.473663,86.620346 
	C157.686752,80.897446 168.762985,87.014160 168.030212,97.072266 
	C168.074066,104.288734 168.109848,110.640823 168.077011,117.439613 
	C168.554840,124.861008 167.752914,131.166153 160.029556,134.082260 
	C159.919846,134.123688 160.005524,134.682602 160.000000,135.000000 
	C156.969406,135.000000 153.938812,135.000000 150.750183,134.734879 
	C149.464951,133.326736 148.358063,132.162796 147.206604,131.044739 
	C144.062073,127.991432 141.833771,124.092422 143.548126,120.079758 
	C144.312698,118.290154 148.414413,117.926285 151.314941,116.974594 
	C154.881348,116.862930 153.722427,118.400482 153.355164,120.380821 
	C153.105637,121.726433 154.603287,123.396042 155.319595,124.920761 
	C156.636063,123.857811 158.713745,123.014023 159.097107,121.682449 
	C159.730042,119.483955 159.268997,116.970505 159.268997,114.818848 
	C156.339966,114.818848 154.216217,114.818848 151.802933,114.619400 
	C145.408005,112.225250 143.055145,109.135567 143.172882,102.736511 
	C143.244522,98.840698 143.812881,94.954018 144.158127,91.063248 
M152.705002,97.219933 
	C152.675919,98.701393 152.228485,100.343811 152.721268,101.624466 
	C153.369370,103.308739 154.524429,105.716812 155.873566,106.028175 
	C159.038620,106.758614 159.458481,104.076324 159.464020,101.589630 
	C159.466583,100.436737 159.657562,99.224648 159.368240,98.145241 
	C158.973282,96.671799 158.201431,95.299393 157.591156,93.883682 
	C156.017776,94.727425 154.444382,95.571167 152.705002,97.219933 
z"/>
<path fill="#050402" opacity="1.000000" stroke="none" 
	d="
M1.000001,61.468658 
	C1.716158,61.510410 2.941065,61.914295 3.073536,62.546925 
	C5.867157,75.888306 15.883392,80.363022 27.636852,82.754593 
	C28.125391,82.854004 28.630035,82.875229 29.117647,82.978065 
	C40.225491,85.320763 43.041317,87.892448 43.298771,95.917824 
	C43.660709,107.200287 39.460945,113.330963 30.234753,117.062721 
	C28.245228,118.573097 25.822630,121.675919 24.352577,121.276131 
	C20.841827,120.321381 16.798431,118.396294 14.836674,115.568237 
	C13.159486,113.150421 13.375344,108.768822 14.116221,105.571503 
	C14.551508,103.692978 17.505676,101.418297 19.579494,101.128288 
	C22.712381,100.690178 23.365648,103.598717 23.214520,106.376022 
	C23.182154,106.970833 23.488194,107.584061 23.636709,108.182243 
	C30.800154,106.651276 34.719917,99.318779 32.544712,91.894234 
	C30.985447,86.572060 24.169096,83.728111 18.073883,85.920013 
	C12.669057,87.863655 7.710896,90.359833 4.877778,95.842781 
	C4.089713,97.367920 2.544873,98.502022 1.173610,99.407761 
	C1.000000,86.645775 1.000000,74.291542 1.000001,61.468658 
z"/>
<path fill="#886F49" opacity="1.000000" stroke="none" 
	d="
M94.467941,135.000000 
	C97.086311,131.766357 97.917664,127.920029 97.451027,123.552620 
	C97.151901,120.752922 97.376709,117.899757 97.313972,115.071739 
	C97.198639,109.873947 98.716957,103.870605 89.987846,102.815567 
	C90.239571,102.352272 90.491302,101.888977 90.743027,101.425682 
	C94.691475,99.644020 98.586655,97.729042 102.605415,96.123360 
	C105.754562,94.865128 107.184296,96.153816 107.155144,99.601051 
	C107.086182,107.753838 107.394356,115.912788 107.190796,124.060265 
	C107.083832,128.341629 108.088806,131.895416 111.658722,134.871674 
	C106.311958,135.000000 100.623917,135.000000 94.467941,135.000000 
z"/>
<path fill="#070503" opacity="1.000000" stroke="none" 
	d="
M143.697815,90.993576 
	C143.812881,94.954018 143.244522,98.840698 143.172882,102.736511 
	C143.055145,109.135567 145.408005,112.225250 151.663696,114.879990 
	C151.543182,115.865135 151.272369,116.390244 151.001556,116.915344 
	C148.414413,117.926285 144.312698,118.290154 143.548126,120.079758 
	C141.833771,124.092422 144.062073,127.991432 147.206604,131.044739 
	C148.358063,132.162796 149.464951,133.326736 150.296082,134.734879 
	C144.645065,135.000000 139.290146,135.000000 133.338684,134.651169 
	C132.062668,132.168808 131.383148,130.035263 130.799408,127.529434 
	C134.702332,115.033478 138.509491,102.909828 142.316650,90.786171 
	C142.623611,90.832085 142.930557,90.877998 143.697815,90.993576 
z"/>
<path fill="#0A0704" opacity="1.000000" stroke="none" 
	d="
M1.000000,122.476662 
	C1.453319,121.915443 2.250283,121.654205 2.310679,121.771667 
	C5.376827,127.735268 10.582129,131.288239 16.141335,134.647903 
	C11.082422,135.000000 6.164845,135.000000 1.000000,135.000000 
	C1.000000,130.987762 1.000000,126.970543 1.000000,122.476662 
z"/>
<path fill="#0B0603" opacity="1.000000" stroke="none" 
	d="
M160.486572,135.000000 
	C160.005524,134.682602 159.919846,134.123688 160.029556,134.082260 
	C167.752914,131.166153 168.554840,124.861008 168.386078,117.441452 
	C169.175827,116.997734 169.587906,116.998863 170.000000,117.000000 
	C170.000000,122.896767 170.000000,128.793533 170.000000,135.000000 
	C166.997818,135.000000 163.985489,135.000000 160.486572,135.000000 
z"/>
<path fill="#62533A" opacity="1.000000" stroke="none" 
	d="
M130.703644,127.901733 
	C131.383148,130.035263 132.062668,132.168808 132.871094,134.651169 
	C126.978844,135.000000 120.957695,135.000000 114.468269,135.000000 
	C115.509277,133.504272 117.018555,132.008545 118.965485,130.727814 
	C123.778801,134.934708 127.336037,133.977417 130.703644,127.901733 
z"/>
<path fill="#110000" opacity="1.000000" stroke="none" 
	d="
M170.000000,116.531593 
	C169.587906,116.998863 169.175827,116.997734 168.454681,116.994766 
	C168.109848,110.640823 168.074066,104.288734 168.097412,97.472725 
	C168.566193,97.006554 168.975861,97.004303 169.692749,97.001022 
	C170.000000,103.354401 170.000000,109.708794 170.000000,116.531593 
z"/>
<path fill="#92774E" opacity="1.000000" stroke="none" 
	d="
M165.088989,24.155525 
	C165.855972,29.670931 166.665726,34.873348 166.844421,40.097347 
	C167.100281,47.578018 167.039032,55.078159 166.846497,62.563122 
	C166.653809,70.055428 161.796585,74.509354 155.503632,76.911125 
	C149.581207,79.171486 143.215485,79.297646 138.712723,73.602112 
	C137.195602,71.683105 136.145065,68.860504 136.081421,66.419586 
	C135.803925,55.775040 135.757751,45.113598 136.030090,34.468590 
	C136.312271,23.439648 146.931885,15.397415 157.504990,18.364511 
	C160.250412,19.134951 162.417267,21.967041 165.088989,24.155525 
M152.647751,43.603451 
	C152.388596,42.535198 151.658951,41.302776 151.963089,40.431068 
	C152.718231,38.266747 154.414169,36.351086 154.805115,34.169422 
	C155.036179,32.879879 153.502899,31.274176 152.763031,29.810642 
	C151.197266,30.728022 149.411087,31.421961 148.158844,32.657177 
	C147.534073,33.273438 147.811722,34.879562 147.807968,36.038353 
	C147.780991,44.371185 147.643829,52.708508 147.899796,61.033401 
	C147.952225,62.738396 149.315414,65.662239 150.421173,65.837593 
	C153.628128,66.346161 155.104767,63.982677 155.125687,60.853855 
	C155.156876,56.187683 155.246002,51.517189 155.066467,46.857937 
	C155.026230,45.813347 153.976685,44.807644 152.647751,43.603451 
z"/>
<path fill="#90754C" opacity="1.000000" stroke="none" 
	d="
M116.438766,67.310120 
	C118.195206,61.932728 121.302803,59.645790 125.197990,60.495445 
	C129.126968,61.352474 131.320282,65.198761 130.804947,70.328011 
	C129.778992,80.539871 116.890198,88.233437 107.543655,84.145203 
	C102.580704,81.974365 100.278946,77.825562 100.199074,72.635506 
	C100.032722,61.826065 100.024055,51.010777 100.169975,40.200851 
	C100.337288,27.806190 114.768349,21.842394 124.946274,26.179337 
	C129.690506,28.200912 131.909149,34.068012 130.491196,39.321842 
	C129.262390,43.874870 125.350616,46.924057 121.167992,46.589195 
	C117.167412,46.268909 116.369225,44.560127 117.829544,40.798943 
	C118.324112,39.525131 117.491348,37.735970 117.265152,36.182320 
	C115.726883,36.833904 113.987816,37.233044 112.728188,38.234947 
	C112.011185,38.805237 111.835579,40.359016 111.829170,41.472290 
	C111.774551,50.952988 111.702530,60.437160 111.949394,69.912117 
	C111.985809,71.309761 113.418289,73.068382 114.699211,73.856865 
	C115.278587,74.213509 117.917023,72.773079 118.104546,71.842331 
	C118.362320,70.562920 117.180763,68.993507 116.438766,67.310120 
z"/>
<path fill="#8F754D" opacity="1.000000" stroke="none" 
	d="
M130.799408,127.529434 
	C127.336037,133.977417 123.778801,134.934708 119.266571,130.615265 
	C119.482208,129.449188 119.834404,128.610596 120.581757,127.294388 
	C121.620117,125.166557 122.263321,123.516342 122.906509,121.866119 
	C125.133339,114.432472 127.360161,106.998825 129.934753,98.404259 
	C125.133141,99.856979 121.899879,100.835197 118.674614,101.810997 
	C115.985481,93.367340 117.397522,90.834610 125.629837,89.139046 
	C129.323059,88.378372 132.920792,86.942627 136.636444,86.582291 
	C138.826385,86.369911 142.921234,84.886414 142.318451,90.412361 
	C138.509491,102.909828 134.702332,115.033478 130.799408,127.529434 
z"/>
<path fill="#100C07" opacity="1.000000" stroke="none" 
	d="
M25.252815,66.760078 
	C16.027117,64.627312 12.160371,56.814339 16.182777,48.589119 
	C19.209539,42.399837 23.570559,37.631634 30.832361,36.219902 
	C35.529587,35.306740 39.719772,37.203300 40.849812,41.219669 
	C41.887283,44.907043 38.454559,52.204990 34.989063,52.685242 
	C33.694847,52.864594 31.559069,51.296371 30.819715,49.963310 
	C30.048271,48.572388 30.497007,46.504715 30.396578,44.404129 
	C25.189777,44.966305 23.197641,48.451572 21.551161,52.302372 
	C19.137112,57.948376 21.944471,61.800392 26.238884,65.472237 
	C26.130529,66.014801 25.811413,66.285858 25.252815,66.760078 
z"/>
<path fill="#62533A" opacity="1.000000" stroke="none" 
	d="
M122.620674,122.039017 
	C122.263321,123.516342 121.620117,125.166557 120.683037,126.967979 
	C121.037712,125.483429 121.686272,123.847664 122.620674,122.039017 
z"/>
<path fill="#0F0B05" opacity="1.000000" stroke="none" 
	d="
M152.787994,96.817421 
	C154.444382,95.571167 156.017776,94.727425 157.591156,93.883682 
	C158.201431,95.299393 158.973282,96.671799 159.368240,98.145241 
	C159.657562,99.224648 159.466583,100.436737 159.464020,101.589630 
	C159.458481,104.076324 159.038620,106.758614 155.873566,106.028175 
	C154.524429,105.716812 153.369370,103.308739 152.721268,101.624466 
	C152.228485,100.343811 152.675919,98.701393 152.787994,96.817421 
z"/>
<path fill="#130E09" opacity="1.000000" stroke="none" 
	d="
M151.314941,116.974602 
	C151.272369,116.390244 151.543182,115.865135 151.953232,115.079437 
	C154.216217,114.818848 156.339966,114.818848 159.268997,114.818848 
	C159.268997,116.970505 159.730042,119.483955 159.097107,121.682449 
	C158.713745,123.014023 156.636063,123.857811 155.319595,124.920761 
	C154.603287,123.396042 153.105637,121.726433 153.355164,120.380821 
	C153.722427,118.400482 154.881348,116.862930 151.314941,116.974602 
z"/>
<path fill="#080603" opacity="1.000000" stroke="none" 
	d="
M153.019775,43.693745 
	C153.976685,44.807644 155.026230,45.813347 155.066467,46.857937 
	C155.246002,51.517189 155.156876,56.187683 155.125687,60.853855 
	C155.104767,63.982677 153.628128,66.346161 150.421173,65.837593 
	C149.315414,65.662239 147.952225,62.738396 147.899796,61.033401 
	C147.643829,52.708508 147.780991,44.371185 147.807968,36.038353 
	C147.811722,34.879562 147.534073,33.273438 148.158844,32.657177 
	C149.411087,31.421961 151.197266,30.728022 152.763031,29.810642 
	C153.502899,31.274176 155.036179,32.879879 154.805115,34.169422 
	C154.414169,36.351086 152.718231,38.266747 151.963089,40.431068 
	C151.658951,41.302776 152.388596,42.535198 153.019775,43.693745 
z"/>
</svg>