<?xml version="1.0" encoding="UTF-8" standalone="no"?>
<svg
   version="1.1"
   id="Layer_1"
   x="0px"
   y="0px"
   width="100%"
   viewBox="0 0 169 134"
   enable-background="new 0 0 169 134"
   xml:space="preserve"
   sodipodi:docname="sfco.svg"
   inkscape:version="1.2.2 (b0a8486541, 2022-12-01)"
   xmlns:inkscape="http://www.inkscape.org/namespaces/inkscape"
   xmlns:sodipodi="http://sodipodi.sourceforge.net/DTD/sodipodi-0.dtd"
   xmlns="http://www.w3.org/2000/svg"
   xmlns:svg="http://www.w3.org/2000/svg"><defs
   id="defs43" /><sodipodi:namedview
   id="namedview41"
   pagecolor="#ffffff"
   bordercolor="#111111"
   borderopacity="1"
   inkscape:showpageshadow="0"
   inkscape:pageopacity="0"
   inkscape:pagecheckerboard="1"
   inkscape:deskcolor="#d1d1d1"
   showgrid="false"
   inkscape:zoom="6.5223881"
   inkscape:cx="84.47826"
   inkscape:cy="67"
   inkscape:window-width="1920"
   inkscape:window-height="1027"
   inkscape:window-x="1"
   inkscape:window-y="1080"
   inkscape:window-maximized="1"
   inkscape:current-layer="Layer_1" />

<path
   fill="#92774D"
   opacity="1.000000"
   stroke="none"
   d=" M1.000000,53.444164   C1.754025,52.143879 2.909503,51.406181 3.202185,50.413975   C8.012033,34.108349 21.890221,22.917528 37.205692,23.898436   C40.824360,24.130199 44.287788,26.726448 47.831078,28.214893   C50.274948,29.241503 52.733368,30.233488 55.902218,31.535526   C55.600586,32.617062 55.663120,35.070965 54.483616,36.096878   C51.493118,38.697956 51.255386,41.920124 50.813473,45.403362   C49.376637,56.728668 37.470455,67.835510 26.654114,65.461945   C21.944471,61.800392 19.137112,57.948376 21.551161,52.302372   C23.197641,48.451572 25.189777,44.966305 30.396578,44.404129   C30.497007,46.504715 30.048271,48.572388 30.819715,49.963310   C31.559069,51.296371 33.694847,52.864594 34.989063,52.685242   C38.454559,52.204990 41.887283,44.907043 40.849812,41.219669   C39.719772,37.203300 35.529587,35.306740 30.832361,36.219902   C23.570559,37.631634 19.209539,42.399837 16.182777,48.589119   C12.160371,56.814339 16.027117,64.627312 25.013336,66.963242   C29.306553,68.037262 33.551796,69.394592 37.902138,70.131241   C50.101246,72.196945 58.282650,80.441864 57.343433,92.580002   C56.327988,105.703300 51.396393,117.813942 40.286037,125.963531   C35.490849,129.480881 29.655533,131.580215 24.146358,134.661865   C21.629442,135.000000 19.258884,135.000000 16.585499,134.647903   C10.582129,131.288239 5.376827,127.735268 2.310679,121.771667   C2.250283,121.654205 1.453319,121.915443 1.000000,122.000000   C1.000000,114.645744 1.000000,107.291496 1.173610,99.876381   C2.544873,98.502022 4.089713,97.367920 4.877778,95.842781   C7.710896,90.359833 12.669057,87.863655 18.073883,85.920013   C24.169096,83.728111 30.985447,86.572060 32.544712,91.894234   C34.719917,99.318779 30.800154,106.651276 23.636709,108.182243   C23.488194,107.584061 23.182154,106.970833 23.214520,106.376022   C23.365648,103.598717 22.712381,100.690178 19.579494,101.128288   C17.505676,101.418297 14.551508,103.692978 14.116221,105.571503   C13.375344,108.768822 13.159486,113.150421 14.836674,115.568237   C16.798431,118.396294 20.841827,120.321381 24.352577,121.276131   C25.822630,121.675919 28.245228,118.573097 30.234753,117.062721   C39.460945,113.330963 43.660709,107.200287 43.298771,95.917824   C43.041317,87.892448 40.225491,85.320763 29.117647,82.978065   C28.630035,82.875229 28.125391,82.854004 27.636852,82.754593   C15.883392,80.363022 5.867157,75.888306 3.073536,62.546925   C2.941065,61.914295 1.716158,61.510410 1.000001,61.000000   C1.000000,58.629444 1.000000,56.258884 1.000000,53.444164  z"
   id="path4" />
<path
   fill="#8F754C"
   opacity="1.000000"
   stroke="none"
   d=" M105.625000,1.000000   C103.380440,5.121556 105.722679,9.077779 106.533737,13.019688   C107.543190,17.925884 105.998215,21.655653 101.728477,23.942909   C100.397255,24.656033 98.173019,24.432108 96.689972,23.825075   C95.943939,23.519709 95.520828,21.340130 95.682365,20.103540   C96.194077,16.186548 94.288231,14.658388 90.830467,15.203519   C87.277061,15.763727 83.361511,16.219688 80.467369,18.070583   C78.177925,19.534752 76.091011,22.941675 75.845955,25.660017   C75.207573,32.741417 75.631195,39.918552 75.631195,47.384151   C80.569710,47.528458 85.056824,42.401573 89.337830,47.085255   C91.475945,49.424469 93.234856,52.110283 96.090942,55.852024   C92.458336,55.852024 90.566353,55.862122 88.674500,55.850330   C78.948120,55.789711 73.969841,60.744476 74.038582,70.429489   C74.095299,78.421852 74.044716,86.417412 74.276047,94.404770   C74.356598,97.185837 74.908173,100.010201 75.651749,102.702339   C76.901382,107.226608 79.446373,108.285667 84.714218,106.868477   C85.981758,113.424858 80.742363,117.718819 73.232819,116.214371   C68.795593,115.325424 64.380699,114.324989 60.015312,113.387474   C64.976601,99.368050 61.085300,84.196724 62.284512,69.319496   C62.404575,67.829979 60.397945,66.076004 59.193642,64.594925   C57.454063,62.455547 55.545555,60.453533 53.816944,58.513885   C54.867661,57.385708 55.052288,57.000141 55.324974,56.922043   C62.372192,54.903683 62.369690,54.909229 62.362793,46.953007   C62.357742,41.125633 62.306431,35.297489 62.381996,29.471069   C62.476429,22.189657 62.287567,21.870569 55.569500,20.610512   C56.247620,13.853708 61.542519,11.908476 66.697197,10.553782   C77.102699,7.819123 87.657875,5.655655 98.141991,3.216530   C99.738075,2.845201 101.284256,2.259308 102.926758,1.386329   C103.750000,1.000000 104.500000,1.000000 105.625000,1.000000  z"
   id="path6" />
<path
   fill="#8F754C"
   opacity="1.000000"
   stroke="none"
   d=" M144.158127,91.063248   C145.923996,89.573708 147.586258,87.935486 149.473663,86.620346   C157.686752,80.897446 168.762985,87.014160 168.030212,97.072266   C168.074066,104.288734 168.109848,110.640823 168.077011,117.439613   C168.554840,124.861008 167.752914,131.166153 160.029556,134.082260   C159.919846,134.123688 160.005524,134.682602 160.000000,135.000000   C156.969406,135.000000 153.938812,135.000000 150.750183,134.734879   C149.464951,133.326736 148.358063,132.162796 147.206604,131.044739   C144.062073,127.991432 141.833771,124.092422 143.548126,120.079758   C144.312698,118.290154 148.414413,117.926285 151.314941,116.974594   C154.881348,116.862930 153.722427,118.400482 153.355164,120.380821   C153.105637,121.726433 154.603287,123.396042 155.319595,124.920761   C156.636063,123.857811 158.713745,123.014023 159.097107,121.682449   C159.730042,119.483955 159.268997,116.970505 159.268997,114.818848   C156.339966,114.818848 154.216217,114.818848 151.802933,114.619400   C145.408005,112.225250 143.055145,109.135567 143.172882,102.736511   C143.244522,98.840698 143.812881,94.954018 144.158127,91.063248  M152.705002,97.219933   C152.675919,98.701393 152.228485,100.343811 152.721268,101.624466   C153.369370,103.308739 154.524429,105.716812 155.873566,106.028175   C159.038620,106.758614 159.458481,104.076324 159.464020,101.589630   C159.466583,100.436737 159.657562,99.224648 159.368240,98.145241   C158.973282,96.671799 158.201431,95.299393 157.591156,93.883682   C156.017776,94.727425 154.444382,95.571167 152.705002,97.219933  z"
   id="path8" />

<path
   fill="#886F49"
   opacity="1.000000"
   stroke="none"
   d=" M94.467941,135.000000   C97.086311,131.766357 97.917664,127.920029 97.451027,123.552620   C97.151901,120.752922 97.376709,117.899757 97.313972,115.071739   C97.198639,109.873947 98.716957,103.870605 89.987846,102.815567   C90.239571,102.352272 90.491302,101.888977 90.743027,101.425682   C94.691475,99.644020 98.586655,97.729042 102.605415,96.123360   C105.754562,94.865128 107.184296,96.153816 107.155144,99.601051   C107.086182,107.753838 107.394356,115.912788 107.190796,124.060265   C107.083832,128.341629 108.088806,131.895416 111.658722,134.871674   C106.311958,135.000000 100.623917,135.000000 94.467941,135.000000  z"
   id="path12" />





<path
   fill="#92774E"
   opacity="1.000000"
   stroke="none"
   d=" M165.088989,24.155525   C165.855972,29.670931 166.665726,34.873348 166.844421,40.097347   C167.100281,47.578018 167.039032,55.078159 166.846497,62.563122   C166.653809,70.055428 161.796585,74.509354 155.503632,76.911125   C149.581207,79.171486 143.215485,79.297646 138.712723,73.602112   C137.195602,71.683105 136.145065,68.860504 136.081421,66.419586   C135.803925,55.775040 135.757751,45.113598 136.030090,34.468590   C136.312271,23.439648 146.931885,15.397415 157.504990,18.364511   C160.250412,19.134951 162.417267,21.967041 165.088989,24.155525  M152.647751,43.603451   C152.388596,42.535198 151.658951,41.302776 151.963089,40.431068   C152.718231,38.266747 154.414169,36.351086 154.805115,34.169422   C155.036179,32.879879 153.502899,31.274176 152.763031,29.810642   C151.197266,30.728022 149.411087,31.421961 148.158844,32.657177   C147.534073,33.273438 147.811722,34.879562 147.807968,36.038353   C147.780991,44.371185 147.643829,52.708508 147.899796,61.033401   C147.952225,62.738396 149.315414,65.662239 150.421173,65.837593   C153.628128,66.346161 155.104767,63.982677 155.125687,60.853855   C155.156876,56.187683 155.246002,51.517189 155.066467,46.857937   C155.026230,45.813347 153.976685,44.807644 152.647751,43.603451  z"
   id="path24" />
<path
   fill="#90754C"
   opacity="1.000000"
   stroke="none"
   d=" M116.438766,67.310120   C118.195206,61.932728 121.302803,59.645790 125.197990,60.495445   C129.126968,61.352474 131.320282,65.198761 130.804947,70.328011   C129.778992,80.539871 116.890198,88.233437 107.543655,84.145203   C102.580704,81.974365 100.278946,77.825562 100.199074,72.635506   C100.032722,61.826065 100.024055,51.010777 100.169975,40.200851   C100.337288,27.806190 114.768349,21.842394 124.946274,26.179337   C129.690506,28.200912 131.909149,34.068012 130.491196,39.321842   C129.262390,43.874870 125.350616,46.924057 121.167992,46.589195   C117.167412,46.268909 116.369225,44.560127 117.829544,40.798943   C118.324112,39.525131 117.491348,37.735970 117.265152,36.182320   C115.726883,36.833904 113.987816,37.233044 112.728188,38.234947   C112.011185,38.805237 111.835579,40.359016 111.829170,41.472290   C111.774551,50.952988 111.702530,60.437160 111.949394,69.912117   C111.985809,71.309761 113.418289,73.068382 114.699211,73.856865   C115.278587,74.213509 117.917023,72.773079 118.104546,71.842331   C118.362320,70.562920 117.180763,68.993507 116.438766,67.310120  z"
   id="path26" />
<path
   fill="#8F754D"
   opacity="1.000000"
   stroke="none"
   d=" M130.799408,127.529434   C127.336037,133.977417 123.778801,134.934708 119.266571,130.615265   C119.482208,129.449188 119.834404,128.610596 120.581757,127.294388   C121.620117,125.166557 122.263321,123.516342 122.906509,121.866119   C125.133339,114.432472 127.360161,106.998825 129.934753,98.404259   C125.133141,99.856979 121.899879,100.835197 118.674614,101.810997   C115.985481,93.367340 117.397522,90.834610 125.629837,89.139046   C129.323059,88.378372 132.920792,86.942627 136.636444,86.582291   C138.826385,86.369911 142.921234,84.886414 142.318451,90.412361   C138.509491,102.909828 134.702332,115.033478 130.799408,127.529434  z"
   id="path28" />

<path
   fill="#62533A"
   opacity="1.000000"
   stroke="none"
   d=" M122.620674,122.039017   C122.263321,123.516342 121.620117,125.166557 120.683037,126.967979   C121.037712,125.483429 121.686272,123.847664 122.620674,122.039017  z"
   id="path32" />



</svg>
